<svg id="visual" viewBox="0 0 900 600" width="900" height="600" xmlns="http://www.w3.org/2000/svg" xmlns:xlink="http://www.w3.org/1999/xlink" version="1.1"><path d="M0 145L13.7 145C27.3 145 54.7 145 82 158C109.3 171 136.7 197 163.8 200C191 203 218 183 245.2 188C272.3 193 299.7 223 327 226C354.3 229 381.7 205 409 179C436.3 153 463.7 125 491 118C518.3 111 545.7 125 573 136C600.3 147 627.7 155 654.8 169C682 183 709 203 736.2 217C763.3 231 790.7 239 818 219C845.3 199 872.7 151 886.3 127L900 103L900 0L886.3 0C872.7 0 845.3 0 818 0C790.7 0 763.3 0 736.2 0C709 0 682 0 654.8 0C627.7 0 600.3 0 573 0C545.7 0 518.3 0 491 0C463.7 0 436.3 0 409 0C381.7 0 354.3 0 327 0C299.7 0 272.3 0 245.2 0C218 0 191 0 163.8 0C136.7 0 109.3 0 82 0C54.7 0 27.3 0 13.7 0L0 0Z" fill="#6198ff"></path><path d="M0 259L13.7 256C27.3 253 54.7 247 82 249C109.3 251 136.7 261 163.8 265C191 269 218 267 245.2 276C272.3 285 299.7 305 327 312C354.3 319 381.7 313 409 293C436.3 273 463.7 239 491 229C518.3 219 545.7 233 573 247C600.3 261 627.7 275 654.8 298C682 321 709 353 736.2 358C763.3 363 790.7 341 818 319C845.3 297 872.7 275 886.3 264L900 253L900 101L886.3 125C872.7 149 845.3 197 818 217C790.7 237 763.3 229 736.2 215C709 201 682 181 654.8 167C627.7 153 600.3 145 573 134C545.7 123 518.3 109 491 116C463.7 123 436.3 151 409 177C381.7 203 354.3 227 327 224C299.7 221 272.3 191 245.2 186C218 181 191 201 163.8 198C136.7 195 109.3 169 82 156C54.7 143 27.3 143 13.7 143L0 143Z" fill="#3c80ff"></path><path d="M0 361L13.7 351C27.3 341 54.7 321 82 326C109.3 331 136.7 361 163.8 368C191 375 218 359 245.2 358C272.3 357 299.7 371 327 376C354.3 381 381.7 377 409 359C436.3 341 463.7 309 491 306C518.3 303 545.7 329 573 352C600.3 375 627.7 395 654.8 413C682 431 709 447 736.2 452C763.3 457 790.7 451 818 427C845.3 403 872.7 361 886.3 340L900 319L900 251L886.3 262C872.7 273 845.3 295 818 317C790.7 339 763.3 361 736.2 356C709 351 682 319 654.8 296C627.7 273 600.3 259 573 245C545.7 231 518.3 217 491 227C463.7 237 436.3 271 409 291C381.7 311 354.3 317 327 310C299.7 303 272.3 283 245.2 274C218 265 191 267 163.8 263C136.7 259 109.3 249 82 247C54.7 245 27.3 251 13.7 254L0 257Z" fill="#0066ff"></path><path d="M0 559L13.7 549C27.3 539 54.7 519 82 511C109.3 503 136.7 507 163.8 508C191 509 218 507 245.2 511C272.3 515 299.7 525 327 529C354.3 533 381.7 531 409 532C436.3 533 463.7 537 491 536C518.3 535 545.7 529 573 527C600.3 525 627.7 527 654.8 530C682 533 709 537 736.2 538C763.3 539 790.7 537 818 539C845.3 541 872.7 547 886.3 550L900 553L900 317L886.3 338C872.7 359 845.3 401 818 425C790.7 449 763.3 455 736.2 450C709 445 682 429 654.8 411C627.7 393 600.3 373 573 350C545.7 327 518.3 301 491 304C463.7 307 436.3 339 409 357C381.7 375 354.3 379 327 374C299.7 369 272.3 355 245.2 356C218 357 191 373 163.8 366C136.7 359 109.3 329 82 324C54.7 319 27.3 339 13.7 349L0 359Z" fill="#0059dd"></path><path d="M0 601L13.7 601C27.3 601 54.7 601 82 601C109.3 601 136.7 601 163.8 601C191 601 218 601 245.2 601C272.3 601 299.7 601 327 601C354.3 601 381.7 601 409 601C436.3 601 463.7 601 491 601C518.3 601 545.7 601 573 601C600.3 601 627.7 601 654.8 601C682 601 709 601 736.2 601C763.3 601 790.7 601 818 601C845.3 601 872.7 601 886.3 601L900 601L900 551L886.3 548C872.7 545 845.3 539 818 537C790.7 535 763.3 537 736.2 536C709 535 682 531 654.8 528C627.7 525 600.3 523 573 525C545.7 527 518.3 533 491 534C463.7 535 436.3 531 409 530C381.7 529 354.3 531 327 527C299.7 523 272.3 513 245.2 509C218 505 191 507 163.8 506C136.7 505 109.3 501 82 509C54.7 517 27.3 537 13.7 547L0 557Z" fill="#004cbb"></path></svg>